<svg id="visual" viewBox="0 0 960 540" width="960" height="540" xmlns="http://www.w3.org/2000/svg" xmlns:xlink="http://www.w3.org/1999/xlink" version="1.1"><rect x="0" y="0" width="960" height="540" fill="#FFFFFF"></rect><path d="M0 135L26.7 145.5C53.3 156 106.7 177 160 183C213.3 189 266.7 180 320 163C373.3 146 426.7 121 480 111C533.3 101 586.7 106 640 106.8C693.3 107.7 746.7 104.3 800 101.7C853.3 99 906.7 97 933.3 96L960 95L960 0L933.3 0C906.7 0 853.3 0 800 0C746.7 0 693.3 0 640 0C586.7 0 533.3 0 480 0C426.7 0 373.3 0 320 0C266.7 0 213.3 0 160 0C106.7 0 53.3 0 26.7 0L0 0Z" fill="#fa7268"></path><path d="M0 141L26.7 142C53.3 143 106.7 145 160 144.7C213.3 144.3 266.7 141.7 320 132C373.3 122.3 426.7 105.7 480 103.8C533.3 102 586.7 115 640 125.8C693.3 136.7 746.7 145.3 800 139.7C853.3 134 906.7 114 933.3 104L960 94L960 0L933.3 0C906.7 0 853.3 0 800 0C746.7 0 693.3 0 640 0C586.7 0 533.3 0 480 0C426.7 0 373.3 0 320 0C266.7 0 213.3 0 160 0C106.7 0 53.3 0 26.7 0L0 0Z" fill="#eb5967"></path><path d="M0 75L26.7 81.5C53.3 88 106.7 101 160 107.7C213.3 114.3 266.7 114.7 320 115C373.3 115.3 426.7 115.7 480 112.7C533.3 109.7 586.7 103.3 640 96C693.3 88.7 746.7 80.3 800 78.2C853.3 76 906.7 80 933.3 82L960 84L960 0L933.3 0C906.7 0 853.3 0 800 0C746.7 0 693.3 0 640 0C586.7 0 533.3 0 480 0C426.7 0 373.3 0 320 0C266.7 0 213.3 0 160 0C106.7 0 53.3 0 26.7 0L0 0Z" fill="#da3f67"></path><path d="M0 30L26.7 37.5C53.3 45 106.7 60 160 66C213.3 72 266.7 69 320 69C373.3 69 426.7 72 480 65.7C533.3 59.3 586.7 43.7 640 39.7C693.3 35.7 746.7 43.3 800 48.2C853.3 53 906.7 55 933.3 56L960 57L960 0L933.3 0C906.7 0 853.3 0 800 0C746.7 0 693.3 0 640 0C586.7 0 533.3 0 480 0C426.7 0 373.3 0 320 0C266.7 0 213.3 0 160 0C106.7 0 53.3 0 26.7 0L0 0Z" fill="#c62368"></path></svg>