<svg id="visual" viewBox="0 0 900 600" width="900" height="600" xmlns="http://www.w3.org/2000/svg" xmlns:xlink="http://www.w3.org/1999/xlink" version="1.1"><rect x="0" y="0" width="900" height="600" fill="#FFFFFF"></rect><path d="M0 178L18.8 166.7C37.7 155.3 75.3 132.7 112.8 128.7C150.3 124.7 187.7 139.3 225.2 140.8C262.7 142.3 300.3 130.7 337.8 122.5C375.3 114.3 412.7 109.7 450.2 116.3C487.7 123 525.3 141 562.8 144.8C600.3 148.7 637.7 138.3 675.2 137.8C712.7 137.3 750.3 146.7 787.8 146.7C825.3 146.7 862.7 137.3 881.3 132.7L900 128L900 0L881.3 0C862.7 0 825.3 0 787.8 0C750.3 0 712.7 0 675.2 0C637.7 0 600.3 0 562.8 0C525.3 0 487.7 0 450.2 0C412.7 0 375.3 0 337.8 0C300.3 0 262.7 0 225.2 0C187.7 0 150.3 0 112.8 0C75.3 0 37.7 0 18.8 0L0 0Z" fill="#fa7268"></path><path d="M0 75L18.8 80.3C37.7 85.7 75.3 96.3 112.8 105C150.3 113.7 187.7 120.3 225.2 126C262.7 131.7 300.3 136.3 337.8 127.5C375.3 118.7 412.7 96.3 450.2 88.2C487.7 80 525.3 86 562.8 85.7C600.3 85.3 637.7 78.7 675.2 75.5C712.7 72.3 750.3 72.7 787.8 82.7C825.3 92.7 862.7 112.3 881.3 122.2L900 132L900 0L881.3 0C862.7 0 825.3 0 787.8 0C750.3 0 712.7 0 675.2 0C637.7 0 600.3 0 562.8 0C525.3 0 487.7 0 450.2 0C412.7 0 375.3 0 337.8 0C300.3 0 262.7 0 225.2 0C187.7 0 150.3 0 112.8 0C75.3 0 37.7 0 18.8 0L0 0Z" fill="#e34c67"></path><path d="M0 80L18.8 75.7C37.7 71.3 75.3 62.7 112.8 58.3C150.3 54 187.7 54 225.2 58.8C262.7 63.7 300.3 73.3 337.8 70.3C375.3 67.3 412.7 51.7 450.2 45.7C487.7 39.7 525.3 43.3 562.8 51.8C600.3 60.3 637.7 73.7 675.2 72.7C712.7 71.7 750.3 56.3 787.8 54.2C825.3 52 862.7 63 881.3 68.5L900 74L900 0L881.3 0C862.7 0 825.3 0 787.8 0C750.3 0 712.7 0 675.2 0C637.7 0 600.3 0 562.8 0C525.3 0 487.7 0 450.2 0C412.7 0 375.3 0 337.8 0C300.3 0 262.7 0 225.2 0C187.7 0 150.3 0 112.8 0C75.3 0 37.7 0 18.8 0L0 0Z" fill="#c62368"></path></svg>