<svg id="visual" viewBox="0 0 960 540" width="960" height="540" xmlns="http://www.w3.org/2000/svg" xmlns:xlink="http://www.w3.org/1999/xlink" version="1.1"><path d="M0 109L14.5 108.2C29 107.3 58 105.7 87.2 104.8C116.3 104 145.7 104 174.8 101.2C204 98.3 233 92.7 262 89.8C291 87 320 87 349 95.2C378 103.3 407 119.7 436.2 124.2C465.3 128.7 494.7 121.3 523.8 113.2C553 105 582 96 611 95.2C640 94.3 669 101.7 698 108C727 114.3 756 119.7 785.2 117.8C814.3 116 843.7 107 872.8 106.2C902 105.3 931 112.7 945.5 116.3L960 120L960 0L945.5 0C931 0 902 0 872.8 0C843.7 0 814.3 0 785.2 0C756 0 727 0 698 0C669 0 640 0 611 0C582 0 553 0 523.8 0C494.7 0 465.3 0 436.2 0C407 0 378 0 349 0C320 0 291 0 262 0C233 0 204 0 174.8 0C145.7 0 116.3 0 87.2 0C58 0 29 0 14.5 0L0 0Z" fill="#eb8d68"></path><path d="M0 179L14.5 183.5C29 188 58 197 87.2 196.2C116.3 195.3 145.7 184.7 174.8 182.8C204 181 233 188 262 182.5C291 177 320 159 349 157.3C378 155.7 407 170.3 436.2 183C465.3 195.7 494.7 206.3 523.8 196.3C553 186.3 582 155.7 611 149.3C640 143 669 161 698 173.7C727 186.3 756 193.7 785.2 192.8C814.3 192 843.7 183 872.8 183.8C902 184.7 931 195.3 945.5 200.7L960 206L960 118L945.5 114.3C931 110.7 902 103.3 872.8 104.2C843.7 105 814.3 114 785.2 115.8C756 117.7 727 112.3 698 106C669 99.7 640 92.3 611 93.2C582 94 553 103 523.8 111.2C494.7 119.3 465.3 126.7 436.2 122.2C407 117.7 378 101.3 349 93.2C320 85 291 85 262 87.8C233 90.7 204 96.3 174.8 99.2C145.7 102 116.3 102 87.2 102.8C58 103.7 29 105.3 14.5 106.2L0 107Z" fill="#e27349"></path><path d="M0 244L14.5 262.8C29 281.7 58 319.3 87.2 338.2C116.3 357 145.7 357 174.8 361.5C204 366 233 375 262 370.5C291 366 320 348 349 349.8C378 351.7 407 373.3 436.2 376.2C465.3 379 494.7 363 523.8 353.2C553 343.3 582 339.7 611 342.3C640 345 669 354 698 349.5C727 345 756 327 785.2 316.2C814.3 305.3 843.7 301.7 872.8 312.5C902 323.3 931 348.7 945.5 361.3L960 374L960 204L945.5 198.7C931 193.3 902 182.7 872.8 181.8C843.7 181 814.3 190 785.2 190.8C756 191.7 727 184.3 698 171.7C669 159 640 141 611 147.3C582 153.7 553 184.3 523.8 194.3C494.7 204.3 465.3 193.7 436.2 181C407 168.3 378 153.7 349 155.3C320 157 291 175 262 180.5C233 186 204 179 174.8 180.8C145.7 182.7 116.3 193.3 87.2 194.2C58 195 29 186 14.5 181.5L0 177Z" fill="#d8572a"></path><path d="M0 455L14.5 462.2C29 469.3 58 483.7 87.2 485.3C116.3 487 145.7 476 174.8 476.8C204 477.7 233 490.3 262 488.7C291 487 320 471 349 472C378 473 407 491 436.2 495.5C465.3 500 494.7 491 523.8 483.7C553 476.3 582 470.7 611 468.8C640 467 669 469 698 476.3C727 483.7 756 496.3 785.2 496.3C814.3 496.3 843.7 483.7 872.8 474.7C902 465.7 931 460.3 945.5 457.7L960 455L960 372L945.5 359.3C931 346.7 902 321.3 872.8 310.5C843.7 299.7 814.3 303.3 785.2 314.2C756 325 727 343 698 347.5C669 352 640 343 611 340.3C582 337.7 553 341.3 523.8 351.2C494.7 361 465.3 377 436.2 374.2C407 371.3 378 349.7 349 347.8C320 346 291 364 262 368.5C233 373 204 364 174.8 359.5C145.7 355 116.3 355 87.2 336.2C58 317.3 29 279.7 14.5 260.8L0 242Z" fill="#bb4b26"></path><path d="M0 541L14.5 541C29 541 58 541 87.2 541C116.3 541 145.7 541 174.8 541C204 541 233 541 262 541C291 541 320 541 349 541C378 541 407 541 436.2 541C465.3 541 494.7 541 523.8 541C553 541 582 541 611 541C640 541 669 541 698 541C727 541 756 541 785.2 541C814.3 541 843.7 541 872.8 541C902 541 931 541 945.5 541L960 541L960 453L945.5 455.7C931 458.3 902 463.7 872.8 472.7C843.7 481.7 814.3 494.3 785.2 494.3C756 494.3 727 481.7 698 474.3C669 467 640 465 611 466.8C582 468.7 553 474.3 523.8 481.7C494.7 489 465.3 498 436.2 493.5C407 489 378 471 349 470C320 469 291 485 262 486.7C233 488.3 204 475.7 174.8 474.8C145.7 474 116.3 485 87.2 483.3C58 481.7 29 467.3 14.5 460.2L0 453Z" fill="#9f3f22"></path></svg>